# xmcd CD database file
#
# Track frame offsets:
#	150
#	43644
#	58695
#	80354
#	92124
#	100594
#	114877
#	139023
#	148765
#	156522
#	172320
#	189882
#	208228
#
# Disc length: 2882 seconds
#
# Revision: 0
# Processed by: cddbd v1.5.2PL0 Copyright (c) Steve Scherf et al.
# Submitted via: CDex 1.70beta2
#
DISCID=b50b400d
DTITLE=Gigi Venegoni - Ante TILT
DYEAR=1900
DGENRE=Jazz
TTITLE0=Land of Trees
TTITLE1=Gravita 9.81
TTITLE2=Dark Waves
TTITLE3=Via De Amicis
TTITLE4=Remember The Giant
TTITLE5=Sunrise Sonata
TTITLE6=The Lake
TTITLE7=Night Flight
TTITLE8=Velvet Shadow
TTITLE9=Phoenix
TTITLE10=Aliante
TTITLE11=Cantilena
TTITLE12=L'acrobata
EXTD=
EXTT0=
EXTT1=
EXTT2=
EXTT3=
EXTT4=
EXTT5=
EXTT6=
EXTT7=
EXTT8=
EXTT9=
EXTT10=
EXTT11=
EXTT12=
PLAYORDER=
